<!--Icon created with Keynote-->
<svg id="svg" version="1.1" xmlns="http://www.w3.org/2000/svg" xmlns:xlink="http://www.w3.org/1999/xlink" width="400" height="631.5467075038285" viewBox="0, 0, 400,631.5467075038285"><g id="svgg"><path id="path0" d="M6.738 315.773 L 6.738 626.034 23.890 626.034 L 41.041 626.034 41.041 475.345 L 41.041 324.655 216.233 324.655 L 391.424 324.655 391.424 175.191 L 391.424 25.727 216.233 25.727 L 41.041 25.727 41.041 15.620 L 41.041 5.513 23.890 5.513 L 6.738 5.513 6.738 315.773 M174.579 74.732 L 174.579 107.810 141.194 107.810 L 107.810 107.810 107.810 74.732 L 107.810 41.654 141.194 41.654 L 174.579 41.654 174.579 74.732 M308.729 74.732 L 308.729 107.810 275.345 107.810 L 241.960 107.810 241.960 74.732 L 241.960 41.654 275.345 41.654 L 308.729 41.654 308.729 74.732 M107.198 141.807 L 107.198 175.191 74.119 175.191 L 41.041 175.191 41.041 141.807 L 41.041 108.423 74.119 108.423 L 107.198 108.423 107.198 141.807 M241.348 141.807 L 241.348 175.191 208.270 175.191 L 175.191 175.191 175.191 141.807 L 175.191 108.423 208.270 108.423 L 241.348 108.423 241.348 141.807 M375.498 141.807 L 375.498 175.191 342.420 175.191 L 309.342 175.191 309.342 141.807 L 309.342 108.423 342.420 108.423 L 375.498 108.423 375.498 141.807 M174.579 208.882 L 174.579 241.960 141.194 241.960 L 107.810 241.960 107.810 208.882 L 107.810 175.804 141.194 175.804 L 174.579 175.804 174.579 208.882 M308.729 208.882 L 308.729 241.960 275.345 241.960 L 241.960 241.960 241.960 208.882 L 241.960 175.804 275.345 175.804 L 308.729 175.804 308.729 208.882 M107.198 275.651 L 107.198 308.729 74.119 308.729 L 41.041 308.729 41.041 275.651 L 41.041 242.573 74.119 242.573 L 107.198 242.573 107.198 275.651 M241.348 275.651 L 241.348 308.729 208.270 308.729 L 175.191 308.729 175.191 275.651 L 175.191 242.573 208.270 242.573 L 241.348 242.573 241.348 275.651 M375.498 275.651 L 375.498 308.729 342.420 308.729 L 309.342 308.729 309.342 275.651 L 309.342 242.573 342.420 242.573 L 375.498 242.573 375.498 275.651 " stroke="none" fill="#FFF" fill-rule="evenodd"></path></g></svg>