<svg id="svg" xmlns="http://www.w3.org/2000/svg" xmlns:xlink="http://www.w3.org/1999/xlink" width="400" height="400" viewBox="0, 0, 400,400"><g id="svgg"><path id="path0" d="M191.364 2.259 C 186.774 5.244,2.862 189.505,1.249 192.735 C -7.114 209.477,14.371 223.434,28.320 210.321 L 30.469 208.301 30.486 298.096 C 30.505 397.959,30.145 391.103,35.644 396.239 C 39.828 400.148,33.358 400.000,200.000 400.000 C 366.642 400.000,360.172 400.148,364.356 396.239 C 369.855 391.103,369.495 397.959,369.514 298.096 L 369.531 208.301 371.680 210.321 C 385.629 223.434,407.114 209.477,398.751 192.735 C 397.138 189.505,213.226 5.244,208.636 2.259 C 203.630 -0.997,196.370 -0.997,191.364 2.259 M268.944 107.616 L 337.500 176.169 337.500 272.459 L 337.500 368.750 307.437 368.750 L 277.374 368.750 277.163 312.247 L 276.953 255.744 274.804 252.497 C 273.622 250.711,271.161 248.452,269.335 247.476 L 266.016 245.703 200.000 245.703 L 133.984 245.703 130.665 247.476 C 128.839 248.452,126.378 250.711,125.196 252.497 L 123.047 255.744 122.837 312.247 L 122.626 368.750 92.563 368.750 L 62.500 368.750 62.500 272.463 L 62.500 176.175 131.053 107.619 C 168.757 69.913,199.782 39.063,199.997 39.063 C 200.212 39.063,231.238 69.911,268.944 107.616 M245.313 323.047 L 245.313 368.750 200.000 368.750 L 154.688 368.750 154.688 323.047 L 154.688 277.344 200.000 277.344 L 245.313 277.344 245.313 323.047 " stroke="none" fill="#FFF" fill-rule="evenodd"></path></g></svg>