<svg id="svg" xmlns="http://www.w3.org/2000/svg" xmlns:xlink="http://www.w3.org/1999/xlink" width="400" height="400" viewBox="0, 0, 400,400"><g id="svgg"><path id="path0" d="M256.571 1.477 C 253.026 3.639,250.927 6.699,250.350 10.543 C 249.350 17.217,250.126 18.272,272.921 41.211 L 294.077 62.500 182.390 62.503 C 56.873 62.506,67.823 61.983,64.058 68.157 C 61.628 72.144,61.628 190.356,64.058 194.343 C 68.758 202.051,81.242 202.051,85.942 194.343 C 87.450 191.870,87.494 190.306,87.497 139.648 L 87.500 87.500 190.691 87.500 L 293.883 87.500 272.711 109.158 C 256.719 125.517,251.353 131.490,250.774 133.572 C 247.718 144.574,257.904 153.924,268.056 149.434 C 271.480 147.919,334.083 85.350,336.464 81.063 C 337.804 78.650,337.740 71.962,336.351 69.300 C 334.909 66.536,273.112 3.571,269.830 1.521 C 266.578 -0.509,259.865 -0.531,256.571 1.477 M322.090 200.008 C 312.117 202.255,312.506 199.807,312.503 260.352 L 312.500 312.500 209.197 312.500 L 105.894 312.500 112.517 305.668 C 116.160 301.910,125.701 292.154,133.719 283.988 C 146.051 271.429,148.437 268.619,149.197 265.755 C 151.986 255.246,141.706 246.097,131.811 250.282 C 129.032 251.457,66.565 314.046,64.044 318.181 C 62.190 321.221,61.992 327.524,63.651 330.703 C 65.149 333.576,127.888 397.451,130.625 398.891 C 138.105 402.824,148.070 397.849,149.671 389.382 C 150.859 383.097,149.713 381.535,127.510 359.193 L 106.745 338.297 218.159 338.094 L 329.573 337.891 331.779 336.256 C 332.992 335.357,334.775 333.460,335.742 332.039 L 337.500 329.456 337.500 268.750 L 337.500 208.044 335.740 205.431 C 332.752 200.999,327.303 198.834,322.090 200.008 " stroke="none" fill="#FFF" fill-rule="evenodd"></path></g></svg>