<svg id="svg" xmlns="http://www.w3.org/2000/svg" xmlns:xlink="http://www.w3.org/1999/xlink" width="400" height="400" viewBox="0, 0, 400,400"><g id="svgg"><path id="path0" d="M319.835 1.170 C 242.555 9.030,181.692 40.753,130.228 99.999 L 125.139 105.857 93.624 108.312 C 57.912 111.093,56.204 111.458,49.102 117.815 C 45.059 121.434,3.631 182.667,1.056 188.830 C -2.864 198.210,2.104 211.543,11.166 215.966 C 14.464 217.576,60.461 225.773,66.248 225.782 C 66.550 225.783,66.797 229.394,66.797 233.808 C 66.797 247.854,65.528 246.179,109.669 290.389 C 153.758 334.546,151.985 333.203,166.210 333.203 C 170.614 333.203,174.217 333.503,174.218 333.870 C 174.225 339.672,182.413 385.499,184.038 388.834 C 188.460 397.910,201.790 402.864,211.206 398.930 C 217.388 396.346,278.553 354.957,282.185 350.899 C 288.516 343.825,288.888 342.087,291.715 306.355 L 294.210 274.819 299.253 270.450 C 368.355 210.589,400.979 137.384,399.861 44.697 L 399.609 23.828 397.137 18.610 C 393.697 11.349,389.267 6.823,382.160 3.308 L 376.259 0.391 353.169 0.260 C 338.597 0.177,326.299 0.513,319.835 1.170 M371.960 25.462 C 375.772 27.382,376.017 29.318,375.544 53.721 C 374.125 126.846,352.226 181.757,304.625 231.543 C 283.493 253.645,255.636 274.986,232.454 286.831 L 225.794 290.234 167.780 232.210 L 109.766 174.186 113.281 167.427 C 145.455 105.562,204.891 55.078,268.062 35.958 C 300.225 26.223,361.233 20.060,371.960 25.462 M261.217 68.348 C 206.547 80.904,198.453 156.713,249.339 179.604 C 300.463 202.602,352.030 147.985,326.058 98.347 C 314.106 75.503,286.227 62.604,261.217 68.348 M288.558 94.790 C 315.050 107.883,315.129 144.765,288.692 157.137 C 260.712 170.230,230.869 143.005,241.572 114.151 C 248.666 95.027,270.682 85.955,288.558 94.790 M105.015 133.398 C 92.886 151.819,82.682 172.565,75.624 193.149 C 72.536 202.157,72.387 202.410,70.402 202.006 C 69.279 201.777,59.043 200.163,47.656 198.420 C 36.270 196.676,26.678 195.172,26.341 195.077 C 25.206 194.757,64.681 135.975,66.567 135.177 C 67.553 134.759,76.797 133.751,87.109 132.936 C 97.422 132.121,105.988 131.409,106.145 131.352 C 106.301 131.296,105.793 132.217,105.015 133.398 M200.566 300.886 C 196.072 303.401,167.869 309.916,164.831 309.141 C 163.688 308.849,148.002 293.738,126.640 272.350 L 90.390 236.054 90.869 231.475 C 91.358 226.796,94.661 213.262,97.676 203.587 L 99.358 198.190 150.442 249.270 C 183.156 281.981,201.180 300.542,200.566 300.886 M47.381 268.013 C 44.238 268.553,3.835 307.543,1.120 312.657 C -4.108 322.503,7.820 333.873,17.812 328.567 C 21.559 326.578,59.991 287.373,61.300 284.205 C 65.105 274.996,57.594 266.260,47.381 268.013 M266.957 312.604 C 266.160 322.973,265.187 332.301,264.795 333.332 C 264.049 335.292,205.268 374.904,204.935 373.671 C 204.843 373.328,203.336 363.730,201.588 352.344 C 199.840 340.957,198.222 330.721,197.994 329.598 C 197.590 327.614,197.843 327.464,206.851 324.376 C 226.386 317.678,264.471 298.741,268.383 293.780 C 268.396 293.764,267.755 302.234,266.957 312.604 M81.250 303.231 C 78.472 304.039,7.481 373.733,2.258 380.781 C -6.125 392.092,7.908 406.125,19.219 397.742 C 27.731 391.434,95.962 321.481,96.839 318.164 C 99.379 308.554,90.895 300.427,81.250 303.231 M115.625 338.732 C 112.608 340.025,73.293 378.684,71.433 382.188 C 66.127 392.180,77.497 404.108,87.343 398.880 C 92.450 396.168,131.398 355.811,131.965 352.643 C 133.799 342.409,124.842 334.784,115.625 338.732 " stroke="none" fill="#FFF" fill-rule="evenodd"></path></g></svg>