<!--Icon made by Freepik(https://www.freepik.com) from Flaticon (https://www.flaticon.com/)-->
<svg id="svg" xmlns="http://www.w3.org/2000/svg" xmlns:xlink="http://www.w3.org/1999/xlink" width="400" height="400" viewBox="0, 0, 400,400"><g id="svgg"><path id="path0" d="M100.720 73.752 C 49.338 92.376,6.624 107.978,5.798 108.423 C -1.774 112.502,-2.068 125.400,5.324 129.222 C 7.294 130.241,74.745 155.469,75.498 155.469 C 75.654 155.469,75.781 173.592,75.781 195.742 C 75.781 241.486,75.218 237.608,82.929 244.972 C 128.018 288.032,258.579 288.168,306.555 245.206 C 314.403 238.179,314.026 240.678,314.045 195.572 L 314.063 156.379 317.383 155.154 C 330.431 150.339,340.212 146.875,340.760 146.875 C 341.115 146.875,341.406 168.587,341.406 195.125 L 341.406 243.374 326.135 258.601 C 301.154 283.510,301.180 281.767,325.436 306.250 L 341.304 322.266 341.551 336.719 C 341.866 355.248,343.762 359.133,352.871 359.918 C 363.129 360.802,365.625 356.428,365.625 337.572 L 365.625 323.031 380.550 308.195 C 406.989 281.913,406.989 283.712,380.550 257.430 L 365.625 242.594 365.625 190.143 L 365.625 137.692 375.195 134.363 C 387.208 130.184,390.844 128.153,392.476 124.713 C 395.090 119.207,393.441 112.037,388.873 109.044 C 385.595 106.896,199.293 39.843,196.671 39.867 C 195.279 39.880,152.101 55.128,100.720 73.752 M258.304 87.167 C 292.194 99.444,325.371 111.442,332.031 113.827 C 338.691 116.213,344.397 118.395,344.711 118.676 C 345.025 118.957,326.919 125.806,304.477 133.895 C 282.034 141.984,248.079 154.229,229.022 161.106 L 194.372 173.610 121.025 146.430 C 80.684 131.481,47.802 119.125,47.953 118.974 C 48.105 118.822,81.586 106.599,122.357 91.811 C 163.127 77.023,196.530 64.906,196.585 64.884 C 196.640 64.862,224.414 74.889,258.304 87.167 M146.627 181.919 C 176.373 192.917,192.315 198.438,194.335 198.438 C 196.321 198.438,213.344 192.675,243.606 181.758 L 289.844 165.079 289.832 196.406 L 289.821 227.734 285.340 231.024 C 246.255 259.723,143.417 260.123,104.883 231.727 L 100.000 228.128 100.000 196.402 C 100.000 171.350,100.205 164.753,100.977 165.038 C 101.514 165.237,122.057 172.833,146.627 181.919 M362.505 274.614 L 370.685 282.822 362.295 291.211 L 353.906 299.600 345.517 291.211 L 337.128 282.822 345.308 274.614 C 349.807 270.100,353.676 266.406,353.906 266.406 C 354.136 266.406,358.006 270.100,362.505 274.614 " stroke="none" fill="#FFF" fill-rule="evenodd"></path></g></svg>